<svg width="155" height="36" viewBox="0 0 155 36" fill="none" xmlns="http://www.w3.org/2000/svg">
<g clip-path="url(#clip0_1491:27548)">
<path d="M40.3262 27.7137H42.394V20.9879H44.7818C48.3765 20.9879 50.6653 19.1251 50.6653 15.8851C50.6653 12.6451 48.3765 10.7822 44.7818 10.7822H40.3262V27.7137ZM42.394 19.0565V12.7165H44.6596C46.9863 12.7165 48.5975 13.7337 48.5975 15.8851C48.5975 18.0365 46.9979 19.0508 44.6596 19.0508L42.394 19.0565Z" fill="white"/>
<path d="M57.3947 16.248C55.8975 16.2523 54.4283 16.6467 53.1369 17.3909L54.0094 19.0823C54.0094 19.0823 55.6846 18.1395 57.4063 18.1395C58.3167 18.1395 60.2856 18.4538 60.2856 20.7738V21.3795C59.2574 20.7603 58.0712 20.4413 56.8654 20.4595C54.3031 20.4595 52.3604 22.008 52.3604 24.1738C52.3604 26.5909 54.5503 27.9938 56.5949 27.9938C57.346 27.9939 58.0866 27.821 58.7573 27.4891C59.4281 27.1571 60.0103 26.6753 60.4572 26.0823V27.7138H62.3534V20.3595C62.3418 18.2852 60.7422 16.248 57.3947 16.248ZM57.0253 26.2109C55.7457 26.2109 54.4078 25.6395 54.4078 24.1795C54.4078 23.0195 55.5159 22.148 57.2871 22.148C58.3373 22.1261 59.3715 22.4029 60.2652 22.9452V24.5166C60.2652 24.5166 59.0437 26.2109 57.0253 26.2109Z" fill="white"/>
<path d="M73.8779 24.5172C73.4865 25.0162 72.9832 25.4199 72.4072 25.6969C71.8312 25.9739 71.1979 26.1167 70.5566 26.1144C68.2677 26.1144 66.7758 24.3258 66.7758 22.1144C66.7758 19.9029 68.2794 18.1144 70.5566 18.1144C71.1448 18.1123 71.7269 18.2318 72.265 18.4651C72.8032 18.6984 73.2853 19.0404 73.6802 19.4687L75.0849 18.2344C74.5147 17.6081 73.817 17.1065 73.037 16.7619C72.2569 16.4174 71.4119 16.2377 70.5566 16.2344C67.2091 16.2344 64.6963 18.8458 64.6963 22.1087C64.6963 25.3715 67.2091 28.0001 70.5566 28.0001C71.4446 27.9939 72.3206 27.7984 73.124 27.4269C73.9275 27.0554 74.6392 26.5169 75.21 25.8487L73.8779 24.5172Z" fill="white"/>
<path d="M84.8709 27.7144H87.7502L81.9887 21.8087L87.3081 16.5373H84.6004L79.726 21.4944V9.42871H77.6582V27.7144H79.726V22.2859L84.8709 27.7144Z" fill="white"/>
<path d="M93.8928 16.248C90.4697 16.248 88.207 18.8595 88.207 22.1223C88.207 25.428 90.6908 27.9995 94.1313 27.9995C95.0331 27.9843 95.9211 27.7801 96.7361 27.4007C97.5511 27.0213 98.2743 26.4754 98.8574 25.7995L97.5544 24.468C97.1463 24.9774 96.6267 25.3898 96.0341 25.6747C95.4414 25.9596 94.7911 26.1097 94.1313 26.1138C91.9908 26.1138 90.3505 24.5423 90.2196 22.848H99.4012C99.4245 22.5823 99.4245 22.4138 99.4245 22.1966C99.4303 18.5938 97.0687 16.248 93.8928 16.248ZM90.272 21.1566C90.3837 20.3002 90.8169 19.5156 91.4866 18.9565C92.1564 18.3974 93.0145 18.104 93.8928 18.1338C94.7602 18.1055 95.6061 18.402 96.2594 18.9632C96.9127 19.5244 97.3247 20.3084 97.4119 21.1566H90.272Z" fill="white"/>
<path d="M100.798 18.3769H103.014V24.494C103.014 26.9597 104.808 27.9997 106.434 27.9997C107.27 27.9846 108.086 27.7509 108.799 27.3226L108.034 25.654C107.648 25.9165 107.199 26.0751 106.731 26.114C105.623 26.114 105.082 25.4854 105.082 24.3997V18.3769H108.624V16.5369H105.082V13.1426H103.014V16.5369H100.798V18.3769Z" fill="white"/>
<path d="M111.29 27.7144H114.245V9.42871H111.29V27.7144Z" fill="#FD3842"/>
<path d="M122.105 25.5827C121.192 25.5827 119.988 25.317 119.988 24.1056C119.988 22.8942 121.241 22.4856 122.154 22.4856C123.073 22.4697 123.982 22.6654 124.81 23.057V24.2427C124.492 24.6534 124.084 24.9876 123.615 25.2198C123.146 25.452 122.63 25.5761 122.105 25.5827ZM122.448 15.957C120.858 15.9958 119.292 16.3495 117.844 16.997L118.804 19.3913C118.804 19.3913 120.601 18.5342 122.294 18.5342C123.329 18.5342 124.804 19.017 124.804 20.517V21.1685C124.804 21.1685 123.699 20.3485 121.555 20.3485C119.022 20.3485 116.978 21.9427 116.978 24.1427C116.983 26.597 119.002 27.9999 121.18 27.9999C123.815 27.9999 125.022 26.2599 125.022 26.2599V27.7142H127.753V20.237C127.765 17.6256 125.796 15.957 122.448 15.957Z" fill="#FD3842"/>
<path d="M131.066 27.7144H133.8V26.2116C134.18 26.7815 134.704 27.2455 135.32 27.5588C135.936 27.8721 136.623 28.0241 137.316 28.0001C140.344 28.0001 142.991 25.5087 142.991 21.9801C142.991 18.4516 140.332 15.9573 137.305 15.9573C136.675 15.9458 136.051 16.0748 135.48 16.3346C134.909 16.5945 134.405 16.9783 134.007 17.4573V9.42871H131.066V27.7144ZM134.021 20.2687C134.302 19.7871 134.707 19.3862 135.195 19.1059C135.683 18.8257 136.237 18.6759 136.802 18.6716C138.797 18.6716 140.001 20.1001 140.001 21.9859C140.001 23.8716 138.794 25.2973 136.802 25.2973C136.237 25.2929 135.683 25.1431 135.195 24.8629C134.707 24.5827 134.302 24.1818 134.021 23.7001V20.2687Z" fill="#FD3842"/>
<path d="M144.43 25.9199C145.121 26.5962 145.944 27.1289 146.849 27.4863C147.755 27.8436 148.724 28.0183 149.7 27.9999C152.678 27.9999 154.795 26.4285 154.795 24.4685C154.795 22.0999 153.146 21.3513 150.831 20.8656C148.862 20.4542 148.074 20.2942 148.074 19.5856C148.074 18.877 149.083 18.497 150.191 18.497C151.765 18.497 153.099 19.4885 153.099 19.4885L154.574 17.3599C153.302 16.4491 151.768 15.958 150.194 15.957C146.995 15.957 145.171 17.7456 145.171 19.537C145.171 21.7113 147.19 22.6799 149.505 23.1627C151.276 23.5256 151.831 23.6713 151.831 24.4199C151.831 25.1228 150.822 25.4599 149.618 25.4599C147.649 25.4599 146.096 23.817 146.096 23.817L144.43 25.9199Z" fill="#FD3842"/>
<path d="M23.3451 10.9258L20.4629 12.5715V15.3915L25.8346 12.3344L23.3451 10.9258Z" fill="#FD3842"/>
<path d="M20.4629 8.39422L26.8205 11.9999L27.3789 12.3342L26.8205 12.6714L20.8584 16.0514L23.3451 17.4628L32.39 12.3342L20.4658 5.57422L20.4629 8.39422Z" fill="#FD3842"/>
<path d="M17.1846 0V13.9686L19.677 15.38V4.90286V4.23429L20.2587 4.57143L32.7646 11.6629V8.85714L17.1846 0Z" fill="#FD3842"/>
<path d="M16.3929 22.2549L15.8956 22.5406L13.9062 23.6835V33.9349L16.3929 32.5263V22.2549Z" fill="#FD3842"/>
<path d="M7.75293 27.1565L13.1247 30.2023V27.3794L10.2396 25.7451L7.75293 27.1565Z" fill="#FD3842"/>
<path d="M3.52196 24.9403L10.0134 21.2603C10.0289 21.2492 10.0454 21.2396 10.0628 21.2317L10.8335 20.7946L13.2795 19.4031C13.2949 19.392 13.3115 19.3825 13.3289 19.3746L16.3507 17.6603L16.3827 17.6431V14.8574L14.9518 15.666L13.6954 16.3774H13.6692H13.6488H13.6197H13.6023H13.5732H13.5412L3.92622 21.8889C3.88701 21.9198 3.84276 21.9439 3.79534 21.9603L0.791016 23.6746V26.486L3.48415 24.9603L3.52196 24.9403Z" fill="#FD3842"/>
<path d="M19.677 16.286L17.1846 14.8574V17.6346L19.677 19.0546V16.286Z" fill="#FD3842"/>
<path d="M6.16281 27.1573L6.74448 26.8202L19.2795 19.7145L16.7928 18.3145L13.7187 20.0573L3.97283 25.5887C3.91868 25.6446 3.84882 25.6834 3.77215 25.7002L1.20117 27.1573L3.84486 28.6573L3.88558 28.6773L10.2374 32.2859L12.724 30.8773L6.76193 27.4945L6.16281 27.1573Z" fill="#FD3842"/>
<path d="M17.1846 21.806V32.5089L19.677 33.9175V20.3975L17.1846 21.806Z" fill="#FD3842"/>
<path d="M16.3929 13.9686V0L13.9062 1.41143V15.38L16.3929 13.9686Z" fill="#FD3842"/>
<path d="M14.3027 34.5883L16.7894 35.9997L19.2789 34.5883L16.7894 33.1797L14.3027 34.5883Z" fill="#FD3842"/>
</g>
<defs>
<clipPath id="clip0_1491:27548">
<rect width="154" height="36" fill="white" transform="translate(0.791016)"/>
</clipPath>
</defs>
</svg>
